<svg width="138" height="20" viewBox="0 0 138 20" fill="none" xmlns="http://www.w3.org/2000/svg">
<path d="M12.3674 19.6599H0.97285C0.836796 19.6599 0.734755 19.6259 0.632714 19.5238C0.530674 19.4218 0.462646 19.3197 0.462646 19.1837V0.816332C0.462646 0.680277 0.530674 0.544223 0.632714 0.476196C0.734755 0.408168 0.87081 0.340141 0.97285 0.340141H4.51026C4.64632 0.340141 4.74836 0.374155 4.8504 0.476196C4.95244 0.578236 5.02047 0.680277 5.02047 0.816332V15.7483H12.3674C12.5035 15.7483 12.6395 15.7823 12.7416 15.9184C12.8436 16.0204 12.8776 16.1224 12.8776 16.2585V19.1837C12.8776 19.3197 12.8436 19.4218 12.7416 19.5238C12.6395 19.6259 12.5035 19.6599 12.3674 19.6599Z" fill="white"/>
<path d="M38.1158 13.9796L35.1566 19.1837C35.0886 19.3197 34.9865 19.4218 34.8505 19.5238C34.7144 19.6259 34.5783 19.6599 34.4763 19.6599H31.0749C30.9389 19.6599 30.8369 19.6259 30.7348 19.5238C30.6328 19.4218 30.5988 19.3197 30.5988 19.1837L35.9049 10L30.5988 0.816332C30.5988 0.680277 30.6328 0.544223 30.7348 0.476196C30.8369 0.408168 30.9389 0.340141 31.0749 0.340141H34.4763C34.5783 0.340141 34.7144 0.374155 34.8505 0.476196C34.9865 0.578236 35.0886 0.680277 35.1566 0.816332L38.1158 6.02041L41.0409 0.816332C41.109 0.680277 41.211 0.578236 41.3471 0.476196C41.4831 0.374155 41.6192 0.340141 41.7212 0.340141H45.1566C45.2926 0.340141 45.3947 0.374155 45.4967 0.476196C45.5988 0.578236 45.6328 0.680277 45.6328 0.816332L40.3266 10L45.6328 19.1837C45.6328 19.3197 45.5988 19.4558 45.4967 19.5238C45.3947 19.5918 45.2926 19.6599 45.1566 19.6599H41.7212C41.6192 19.6599 41.4831 19.6259 41.3471 19.5238C41.211 19.4218 41.109 19.3197 41.0409 19.1837L38.1158 13.9796Z" fill="white"/>
<path d="M51.7552 0.37415C52.5715 0.136054 53.4899 0 54.4762 0C55.4626 0 56.381 0.102041 57.1973 0.340136C58.0137 0.578231 58.6599 0.884354 59.1701 1.22449C59.6803 1.59864 60.1225 2.0068 60.4626 2.44898C60.8028 2.89116 61.1089 3.33333 61.279 3.80952C61.449 4.28571 61.5851 4.65986 61.6871 5.03401C61.7892 5.40816 61.8572 5.71428 61.8572 5.91837V6.2585V13.7075C61.8572 13.8095 61.8572 13.9116 61.8572 14.0816C61.8572 14.2517 61.7892 14.5238 61.6871 14.966C61.5851 15.4082 61.449 15.8163 61.279 16.1905C61.1089 16.5646 60.8368 17.0408 60.4626 17.517C60.0885 17.9932 59.6463 18.4014 59.1701 18.7755C58.6599 19.1156 58.0137 19.4218 57.1973 19.6599C56.381 19.898 55.4626 20 54.4762 20C53.6939 20 52.9456 19.932 52.2654 19.7959C51.5851 19.6599 51.0069 19.4558 50.5647 19.2177C50.0885 18.9796 49.6803 18.7075 49.2722 18.3673C48.898 18.0612 48.5919 17.7211 48.3538 17.3809C48.1157 17.0408 47.9116 16.7007 47.7416 16.3605C47.5715 16.0204 47.4354 15.6803 47.3674 15.3741C47.2994 15.068 47.2313 14.7619 47.1633 14.5238C47.0953 14.2857 47.0953 14.0816 47.0613 13.9456V13.7415V6.32653C47.0613 6.22449 47.0613 6.12245 47.0613 5.95238C47.0613 5.81633 47.1293 5.5102 47.2313 5.06803C47.3334 4.62585 47.4694 4.21769 47.6395 3.80952C47.8096 3.40136 48.0817 2.95918 48.4558 2.48299C48.83 2.0068 49.2722 1.59864 49.7824 1.22449C50.2926 0.918367 50.9388 0.612245 51.7552 0.37415ZM55.1225 4.2517C54.9184 4.21769 54.7143 4.21769 54.4762 4.21769C54.2381 4.21769 54.0681 4.21769 53.83 4.2517C53.6259 4.28571 53.3878 4.35374 53.0817 4.45578C52.7756 4.55782 52.5375 4.72789 52.3334 4.93197C52.1293 5.13605 51.9592 5.40816 51.7892 5.78231C51.6191 6.15646 51.5511 6.59864 51.5511 7.10884V13.0612C51.5511 13.5714 51.6191 14.0136 51.7892 14.3878C51.9592 14.7619 52.1293 15.034 52.3334 15.2381C52.5375 15.4422 52.7756 15.5782 53.0817 15.7143C53.3878 15.8163 53.6259 15.8844 53.83 15.9184C54.0341 15.9524 54.2381 15.9524 54.4762 15.9524C54.7143 15.9524 54.8844 15.9524 55.1225 15.9184C55.3266 15.8844 55.5647 15.8163 55.8708 15.7143C56.1769 15.6122 56.415 15.4422 56.6191 15.2381C56.8232 15.034 56.9932 14.7619 57.1633 14.3878C57.3334 14.0136 57.3674 13.5714 57.3674 13.0612V7.07483C57.3674 6.56462 57.2994 6.12245 57.1633 5.7483C57.0273 5.37415 56.8232 5.10204 56.6191 4.89796C56.415 4.69388 56.1769 4.55782 55.8708 4.42177C55.5647 4.35374 55.3266 4.28571 55.1225 4.2517Z" fill="white"/>
<path d="M73.2858 8.16327H78.0477C78.1838 8.16327 78.3198 8.19728 78.3879 8.33334C78.4899 8.43538 78.5239 8.53742 78.5239 8.67347V18.4694C78.5239 18.6054 78.4219 18.7415 78.2518 18.8776C77.5375 19.2177 76.6191 19.4898 75.5987 19.6939C74.5783 19.898 73.5579 20 72.6396 20H72.3674C71.4491 20 70.5647 19.898 69.8164 19.7279C69.0341 19.5238 68.3879 19.2857 67.8777 18.9796C67.3675 18.6735 66.8913 18.2993 66.4831 17.8912C66.0749 17.483 65.7688 17.0408 65.5307 16.5986C65.2926 16.1565 65.1226 15.7143 64.9865 15.2381C64.8504 14.7619 64.7484 14.3197 64.7144 13.9796C64.6804 13.6054 64.6464 13.2653 64.6464 12.8912V7.17687C64.6464 6.83674 64.6804 6.46259 64.7144 6.08844C64.7484 5.71429 64.8504 5.30613 64.9865 4.82994C65.1226 4.35374 65.3266 3.87755 65.5307 3.46939C65.7348 3.06123 66.0749 2.61905 66.4831 2.17687C66.8913 1.7347 67.3675 1.39456 67.8777 1.08844C68.3879 0.782317 69.0341 0.544222 69.8164 0.34014C70.5987 0.136059 71.4491 0.0680313 72.3674 0.0680313C74.3402 0.0680313 76.0749 0.34014 77.4695 0.918371C77.6736 1.02041 77.7756 1.15647 77.7756 1.29252C77.7756 1.53062 77.6055 2.55102 77.2654 4.38776C77.1974 4.59184 77.0273 4.65987 76.8232 4.65987L76.143 4.45579C75.1906 4.18368 74.3062 4.08164 73.4899 4.08164C73.0137 4.08164 72.5375 4.14966 72.0613 4.2517C71.5851 4.35374 71.143 4.52381 70.6668 4.76191C70.2246 5 69.8504 5.34014 69.5783 5.81633C69.3062 6.29252 69.1702 6.80272 69.1702 7.41497V12.7211C69.1702 14.1497 69.8504 15.1361 71.177 15.6803C71.6872 15.8844 72.1974 15.9864 72.7416 15.9524C73.66 15.9524 74.4763 15.8163 75.2246 15.6122V11.8027H73.2858C73.1498 11.8027 73.0137 11.7687 72.9457 11.6667C72.8436 11.5646 72.8096 11.4626 72.8096 11.3265V8.67347C72.8096 8.53742 72.8436 8.43538 72.9457 8.33334C73.0137 8.23129 73.1498 8.16327 73.2858 8.16327Z" fill="white"/>
<path d="M91.5511 19.1837L89.7143 15.3742C89.2041 15.4082 88.83 15.4422 88.5919 15.4422H86.7212V19.1837C86.7212 19.3197 86.6531 19.4218 86.5511 19.5238C86.449 19.6259 86.347 19.6599 86.211 19.6599H82.6735C82.5375 19.6599 82.4354 19.6259 82.3334 19.5238C82.2314 19.4218 82.1633 19.3197 82.1633 19.1837V0.816332C82.1633 0.680277 82.2314 0.544223 82.3334 0.476196C82.4354 0.374155 82.5715 0.340141 82.6735 0.340141H88.5579C89.3402 0.340141 90.0885 0.408168 90.7688 0.544223C91.449 0.680277 92.0273 0.884359 92.5035 1.12245C92.9797 1.36055 93.4218 1.63266 93.796 1.93878C94.2041 2.2449 94.5103 2.58504 94.7484 2.92517C94.9865 3.26531 95.1905 3.60545 95.3606 3.9796C95.5307 4.31973 95.6667 4.65987 95.7688 4.96599C95.8368 5.27211 95.9048 5.54422 95.9728 5.78232C96.0409 6.02041 96.0409 6.22449 96.0749 6.36055V6.87075V9.2517C96.0749 9.31973 96.0749 9.45579 96.0749 9.59184C96.0749 9.72789 96.0069 10 95.9048 10.4422C95.8028 10.8503 95.6667 11.2585 95.4967 11.6327C95.3266 12.0068 95.0545 12.449 94.7144 12.9252C94.3742 13.4014 93.932 13.8095 93.4558 14.1156L96.0069 19.1837C96.0069 19.3197 95.9388 19.4218 95.8368 19.5238C95.7348 19.6259 95.6327 19.6599 95.4967 19.6599H92.1633C92.0613 19.6599 91.9592 19.6259 91.8232 19.5238C91.6871 19.4558 91.6191 19.3197 91.5511 19.1837ZM88.5579 4.2517H86.6871V11.2245H88.5579C88.796 11.2245 89.0001 11.2245 89.2041 11.1905C89.4082 11.1565 89.6803 11.0884 89.9524 10.9864C90.2586 10.8844 90.4967 10.7143 90.7007 10.5102C90.9048 10.3061 91.1089 10.034 91.245 9.65987C91.381 9.28572 91.4831 8.84354 91.4831 8.33334V7.14286C91.4831 6.63266 91.415 6.19048 91.245 5.81633C91.0749 5.44218 90.9048 5.17007 90.7007 4.96599C90.4967 4.76191 90.2246 4.62585 89.9524 4.4898C89.6463 4.38776 89.4082 4.31973 89.2041 4.28572C89.0001 4.2517 88.796 4.2517 88.5579 4.2517Z" fill="white"/>
<path d="M98.4899 19.1837V0.816332C98.4899 0.680277 98.5579 0.544223 98.6599 0.476196C98.762 0.408168 98.898 0.340141 99.0001 0.340141H102.537C102.674 0.340141 102.776 0.374155 102.878 0.476196C102.98 0.578236 103.048 0.680277 103.048 0.816332V19.1837C103.048 19.3197 102.98 19.4558 102.878 19.5238C102.776 19.5918 102.64 19.6599 102.537 19.6599H99.0001C98.864 19.6599 98.762 19.6259 98.6599 19.5238C98.5579 19.4218 98.4899 19.3197 98.4899 19.1837Z" fill="white"/>
<path d="M121.789 0.816332V19.1837C121.789 19.3197 121.721 19.4558 121.619 19.5238C121.517 19.5918 121.381 19.6599 121.279 19.6599H117.878C117.707 19.6599 117.571 19.5238 117.469 19.2857L111.211 8.67347V19.1837C111.211 19.3197 111.143 19.4558 111.041 19.5238C110.939 19.5918 110.803 19.6599 110.701 19.6599H107.163C107.027 19.6599 106.925 19.6259 106.823 19.5238C106.721 19.4218 106.653 19.3197 106.653 19.1837V0.816332C106.653 0.680277 106.721 0.544223 106.823 0.476196C106.925 0.408168 107.061 0.340141 107.163 0.340141H110.565C110.735 0.340141 110.871 0.476196 110.973 0.714291L117.265 11.3605V0.816332C117.265 0.680277 117.333 0.544223 117.435 0.476196C117.537 0.408168 117.639 0.340141 117.776 0.340141H121.313C121.449 0.340141 121.551 0.374155 121.653 0.476196C121.755 0.544223 121.789 0.680277 121.789 0.816332Z" fill="white"/>
<path d="M27.8095 4.25169C27.9456 4.25169 28.0816 4.21768 28.1837 4.08162C28.2857 3.97958 28.3197 3.87754 28.3197 3.74149V0.782305C28.3197 0.64625 28.2857 0.544209 28.1837 0.442169C28.0816 0.340128 27.9796 0.306114 27.8095 0.306114H16.6871C16.585 0.306114 16.449 0.340128 16.3469 0.442169C16.2449 0.544209 16.1769 0.64625 16.1769 0.782305V8.16326H20.4286V12.1088H16.2109V19.1837C16.2109 19.3197 16.2449 19.4558 16.381 19.5238C16.483 19.6258 16.585 19.6599 16.7211 19.6599H27.8435C27.9796 19.6599 28.1157 19.6258 28.2177 19.5238C28.3197 19.4218 28.3537 19.3197 28.3537 19.1837V16.2245C28.3537 16.0884 28.3197 15.9864 28.2177 15.8843C28.1157 15.7823 28.0136 15.7143 27.8435 15.7143H20.4286V12.1088H26.2789C26.415 12.1088 26.551 12.0748 26.6191 11.9388C26.7211 11.8367 26.7551 11.7347 26.7551 11.5986V8.63945C26.7551 8.50339 26.7211 8.40135 26.6191 8.29931C26.517 8.19727 26.415 8.16326 26.2789 8.16326H20.4286V4.25169H27.8095Z" fill="white"/>
<path d="M137.061 15.7483H129.986V19.6939H137.061C137.197 19.6939 137.333 19.6599 137.401 19.5578C137.503 19.4558 137.537 19.3537 137.537 19.2177V16.2585C137.537 16.1224 137.503 16.0204 137.401 15.9184C137.299 15.8163 137.197 15.7483 137.061 15.7483Z" fill="white"/>
<path d="M137.401 0.442169C137.299 0.340128 137.197 0.306114 137.027 0.306114H129.952V4.25169H125.429V15.7483H129.952L129.646 12.1088H135.769C135.905 12.1088 136.041 12.0748 136.143 11.9388C136.245 11.8367 136.279 11.7347 136.279 11.5986V8.63945C136.279 8.50339 136.211 8.40135 136.143 8.29931C136.075 8.19727 135.905 8.16326 135.769 8.16326H129.646V4.25169H137.027C137.163 4.25169 137.299 4.21768 137.401 4.08162C137.503 3.97958 137.537 3.87754 137.537 3.74149V0.782305C137.537 0.680264 137.503 0.544209 137.401 0.442169Z" fill="white"/>
</svg>
