<svg width="10" height="19" viewBox="0 0 10 19" fill="none" xmlns="http://www.w3.org/2000/svg">
<g clip-path="url(#clip0_3_412)">
<path d="M2.77349 2.78106C2.77382 3.9741 3.84469 5.05906 5.0198 5.05906C6.19491 5.05906 7.26611 3.9741 7.26611 2.78106C7.26645 1.58767 6.19625 0.5 5.0198 0.5C3.84335 0.5 2.77047 1.58666 2.77349 2.78106Z" fill="white"/>
<path d="M7.49547 5.9574C8.61561 5.9574 9.51855 6.88566 9.51855 8.02228C9.51855 8.15043 9.51487 8.27007 9.49308 8.39175L7.82159 16.9446C7.64495 17.775 6.80904 18.5 5.86084 18.5H4.17627C3.22874 18.5 2.39216 17.7757 2.21552 16.9446L0.556428 8.39175C0.534977 8.26973 0.518555 8.15009 0.518555 8.02228C0.518555 6.88634 1.42318 5.95706 2.54164 5.95706H7.49412M6.55129 7.42304L5.01755 8.97842L3.48381 7.42304L2.40255 8.51956L3.93629 10.0749L2.40255 11.6429L3.48381 12.7394L5.01755 11.184L6.55129 12.7394L7.64495 11.6429L6.11121 10.0749L7.64495 8.51956L6.55129 7.42304Z" fill="white"/>
</g>
<defs>
<clipPath id="clip0_3_412">
<rect width="9" height="18" fill="white" transform="matrix(-1 0 0 1 9.51855 0.5)"/>
</clipPath>
</defs>
</svg>
