<svg width="19" height="14" viewBox="0 0 19 14" fill="none" xmlns="http://www.w3.org/2000/svg">
<g clip-path="url(#clip0_3_433)">
<path d="M15.1007 4.03533C15.101 4.75373 15.7198 5.40707 16.399 5.40707C17.0782 5.40707 17.6973 4.75349 17.6973 4.03533C17.6975 3.31668 17.0787 2.66162 16.399 2.66162C15.7193 2.66162 15.0991 3.31594 15.1007 4.03533Z" fill="white"/>
<path d="M17.83 5.94922C18.4774 5.94922 19 6.50631 19 7.19083C19 7.26793 18.997 7.34232 18.9847 7.41573L18.0224 12.5631C17.9204 13.063 17.4357 13.4996 16.8877 13.4996H15.9104C15.3627 13.4996 14.8777 13.0633 14.7757 12.5631L13.8183 7.41573C13.806 7.34232 13.7983 7.26817 13.7983 7.19083C13.7983 6.5068 14.321 5.94922 14.9683 5.94922H17.83Z" fill="white"/>
<path d="M8.10257 2.14747C8.1028 3.00926 8.84523 3.79297 9.65993 3.79297C10.4746 3.79297 11.2173 3.00926 11.2173 2.14747C11.2175 1.28543 10.4756 0.499756 9.65993 0.499756C8.8443 0.499756 8.10048 1.2847 8.10257 2.14747Z" fill="white"/>
<path d="M11.3762 4.44214C12.1528 4.44214 12.7788 5.1107 12.7788 5.93149C12.7788 6.02405 12.7751 6.11317 12.7605 6.20132L11.606 12.3762C11.4836 12.9761 10.9022 13.4998 10.245 13.4998H9.0727C8.41579 13.4998 7.83416 12.9763 7.7117 12.3762L6.56355 6.20132C6.54867 6.11317 6.53938 6.02405 6.53938 5.93149C6.53938 5.11095 7.16632 4.44214 7.94198 4.44214H11.3746" fill="white"/>
<path d="M1.52457 4.03533C1.5248 4.75373 2.14361 5.40707 2.82283 5.40707C3.50205 5.40707 4.12109 4.75349 4.12109 4.03533C4.12133 3.31668 3.50252 2.66162 2.82283 2.66162C2.14314 2.66162 1.52271 3.31594 1.52457 4.03533Z" fill="white"/>
<path d="M4.25383 5.94922C4.90122 5.94922 5.42383 6.50631 5.42383 7.19083C5.42383 7.26793 5.42081 7.34232 5.40849 7.41573L4.44624 12.5631C4.34423 13.063 3.8595 13.4996 3.31156 13.4996H2.33421C1.7865 13.4996 1.30154 13.0633 1.19953 12.5631L0.242158 7.41573C0.229842 7.34232 0.222174 7.26817 0.222174 7.19083C0.222174 6.5068 0.744779 5.94922 1.39217 5.94922H4.2536" fill="white"/>
</g>
<defs>
<clipPath id="clip0_3_433">
<rect width="18.7778" height="13" fill="white" transform="matrix(-1 0 0 1 19 0.5)"/>
</clipPath>
</defs>
</svg>
